<mxfile host="app.diagrams.net" modified="2022-03-14T06:36:35.331Z" agent="5.0 (Windows)" etag="rZ0wyiHl21lBaAmt4XSm" version="17.1.2" type="github">
  <diagram id="JAQxM5J5bIEFHMteKze9" name="Diagrama Arq.">
    <mxGraphModel dx="1038" dy="564" grid="1" gridSize="10" guides="1" tooltips="1" connect="1" arrows="1" fold="1" page="1" pageScale="1" pageWidth="827" pageHeight="1169" math="0" shadow="0">
      <root>
        <mxCell id="Vqd0MARFTEj2jixsdshF-0" />
        <mxCell id="Vqd0MARFTEj2jixsdshF-1" parent="Vqd0MARFTEj2jixsdshF-0" />
        <mxCell id="Vqd0MARFTEj2jixsdshF-13" value="" style="edgeStyle=orthogonalEdgeStyle;rounded=0;orthogonalLoop=1;jettySize=auto;html=1;" parent="Vqd0MARFTEj2jixsdshF-1" source="Vqd0MARFTEj2jixsdshF-2" target="Vqd0MARFTEj2jixsdshF-12" edge="1">
          <mxGeometry relative="1" as="geometry" />
        </mxCell>
        <mxCell id="Vqd0MARFTEj2jixsdshF-15" value="" style="edgeStyle=orthogonalEdgeStyle;rounded=0;orthogonalLoop=1;jettySize=auto;html=1;" parent="Vqd0MARFTEj2jixsdshF-1" source="Vqd0MARFTEj2jixsdshF-2" target="Vqd0MARFTEj2jixsdshF-14" edge="1">
          <mxGeometry relative="1" as="geometry" />
        </mxCell>
        <mxCell id="Vqd0MARFTEj2jixsdshF-17" value="" style="edgeStyle=orthogonalEdgeStyle;rounded=0;orthogonalLoop=1;jettySize=auto;html=1;" parent="Vqd0MARFTEj2jixsdshF-1" source="Vqd0MARFTEj2jixsdshF-2" target="Vqd0MARFTEj2jixsdshF-16" edge="1">
          <mxGeometry relative="1" as="geometry" />
        </mxCell>
        <mxCell id="Vqd0MARFTEj2jixsdshF-19" value="" style="edgeStyle=orthogonalEdgeStyle;rounded=0;orthogonalLoop=1;jettySize=auto;html=1;exitX=1;exitY=0.5;exitDx=0;exitDy=0;" parent="Vqd0MARFTEj2jixsdshF-1" source="Vqd0MARFTEj2jixsdshF-2" target="Vqd0MARFTEj2jixsdshF-18" edge="1">
          <mxGeometry relative="1" as="geometry" />
        </mxCell>
        <mxCell id="Vqd0MARFTEj2jixsdshF-21" value="" style="edgeStyle=orthogonalEdgeStyle;rounded=0;orthogonalLoop=1;jettySize=auto;html=1;exitX=0.25;exitY=1;exitDx=0;exitDy=0;" parent="Vqd0MARFTEj2jixsdshF-1" source="Vqd0MARFTEj2jixsdshF-2" target="Vqd0MARFTEj2jixsdshF-20" edge="1">
          <mxGeometry relative="1" as="geometry" />
        </mxCell>
        <mxCell id="Vqd0MARFTEj2jixsdshF-23" value="" style="edgeStyle=orthogonalEdgeStyle;rounded=0;orthogonalLoop=1;jettySize=auto;html=1;exitX=0.75;exitY=1;exitDx=0;exitDy=0;" parent="Vqd0MARFTEj2jixsdshF-1" source="Vqd0MARFTEj2jixsdshF-2" target="Vqd0MARFTEj2jixsdshF-22" edge="1">
          <mxGeometry relative="1" as="geometry" />
        </mxCell>
        <mxCell id="Vqd0MARFTEj2jixsdshF-2" value="Request Tester" style="rounded=1;whiteSpace=wrap;html=1;fillColor=#6d8764;strokeColor=#3A5431;strokeWidth=0;fontStyle=0;fontSize=22;fontFamily=Helvetica;fontColor=#ffffff;" parent="Vqd0MARFTEj2jixsdshF-1" vertex="1">
          <mxGeometry x="248" y="130" width="332" height="100" as="geometry" />
        </mxCell>
        <mxCell id="Kf4BCiLplB8fyuFuvcDP-1" style="edgeStyle=orthogonalEdgeStyle;rounded=0;orthogonalLoop=1;jettySize=auto;html=1;entryX=0.5;entryY=0;entryDx=0;entryDy=0;entryPerimeter=0;fontFamily=Helvetica;fontSize=13;fontColor=#000000;" parent="Vqd0MARFTEj2jixsdshF-1" source="Vqd0MARFTEj2jixsdshF-12" target="Kf4BCiLplB8fyuFuvcDP-0" edge="1">
          <mxGeometry relative="1" as="geometry" />
        </mxCell>
        <mxCell id="Vqd0MARFTEj2jixsdshF-12" value="CLIENTS" style="whiteSpace=wrap;html=1;rounded=0;fillColor=#b1ddf0;strokeColor=#10739e;strokeWidth=0;fontStyle=0" parent="Vqd0MARFTEj2jixsdshF-1" vertex="1">
          <mxGeometry x="30" y="373" width="120" height="60" as="geometry" />
        </mxCell>
        <mxCell id="Kf4BCiLplB8fyuFuvcDP-8" style="edgeStyle=orthogonalEdgeStyle;rounded=0;orthogonalLoop=1;jettySize=auto;html=1;entryX=0.5;entryY=0;entryDx=0;entryDy=0;entryPerimeter=0;fontFamily=Helvetica;fontSize=13;fontColor=#000000;" parent="Vqd0MARFTEj2jixsdshF-1" source="Vqd0MARFTEj2jixsdshF-14" target="Kf4BCiLplB8fyuFuvcDP-3" edge="1">
          <mxGeometry relative="1" as="geometry" />
        </mxCell>
        <mxCell id="Vqd0MARFTEj2jixsdshF-14" value="&lt;div&gt;TRANSACTIONS&lt;/div&gt;" style="whiteSpace=wrap;html=1;rounded=0;fillColor=#b1ddf0;strokeColor=#10739e;strokeWidth=0;fontStyle=0" parent="Vqd0MARFTEj2jixsdshF-1" vertex="1">
          <mxGeometry x="290" y="373" width="120" height="60" as="geometry" />
        </mxCell>
        <mxCell id="Kf4BCiLplB8fyuFuvcDP-9" style="edgeStyle=orthogonalEdgeStyle;rounded=0;orthogonalLoop=1;jettySize=auto;html=1;entryX=0.5;entryY=0;entryDx=0;entryDy=0;entryPerimeter=0;fontFamily=Helvetica;fontSize=13;fontColor=#000000;" parent="Vqd0MARFTEj2jixsdshF-1" source="Vqd0MARFTEj2jixsdshF-16" target="Kf4BCiLplB8fyuFuvcDP-4" edge="1">
          <mxGeometry relative="1" as="geometry" />
        </mxCell>
        <mxCell id="Vqd0MARFTEj2jixsdshF-16" value="&lt;div&gt;CREDITS&lt;/div&gt;" style="whiteSpace=wrap;html=1;rounded=0;fillColor=#b1ddf0;strokeColor=#10739e;strokeWidth=0;fontStyle=0" parent="Vqd0MARFTEj2jixsdshF-1" vertex="1">
          <mxGeometry x="420" y="373" width="120" height="60" as="geometry" />
        </mxCell>
        <mxCell id="Kf4BCiLplB8fyuFuvcDP-11" style="edgeStyle=orthogonalEdgeStyle;rounded=0;orthogonalLoop=1;jettySize=auto;html=1;entryX=0.5;entryY=0;entryDx=0;entryDy=0;entryPerimeter=0;fontFamily=Helvetica;fontSize=13;fontColor=#000000;" parent="Vqd0MARFTEj2jixsdshF-1" source="Vqd0MARFTEj2jixsdshF-18" target="Kf4BCiLplB8fyuFuvcDP-6" edge="1">
          <mxGeometry relative="1" as="geometry" />
        </mxCell>
        <mxCell id="Vqd0MARFTEj2jixsdshF-18" value="&lt;div&gt;CREDIT CARDS&lt;/div&gt;" style="whiteSpace=wrap;html=1;rounded=0;fillColor=#b1ddf0;strokeColor=#10739e;strokeWidth=0;fontStyle=0" parent="Vqd0MARFTEj2jixsdshF-1" vertex="1">
          <mxGeometry x="680" y="373" width="120" height="60" as="geometry" />
        </mxCell>
        <mxCell id="Kf4BCiLplB8fyuFuvcDP-7" style="edgeStyle=orthogonalEdgeStyle;rounded=0;orthogonalLoop=1;jettySize=auto;html=1;entryX=0.5;entryY=0;entryDx=0;entryDy=0;entryPerimeter=0;fontFamily=Helvetica;fontSize=13;fontColor=#000000;" parent="Vqd0MARFTEj2jixsdshF-1" source="Vqd0MARFTEj2jixsdshF-20" target="Kf4BCiLplB8fyuFuvcDP-2" edge="1">
          <mxGeometry relative="1" as="geometry" />
        </mxCell>
        <mxCell id="Vqd0MARFTEj2jixsdshF-20" value="CURRENT ACCOUNTS" style="whiteSpace=wrap;html=1;rounded=0;fillColor=#b1ddf0;strokeColor=#10739e;strokeWidth=0;fontStyle=0" parent="Vqd0MARFTEj2jixsdshF-1" vertex="1">
          <mxGeometry x="160" y="373" width="120" height="60" as="geometry" />
        </mxCell>
        <mxCell id="Kf4BCiLplB8fyuFuvcDP-10" style="edgeStyle=orthogonalEdgeStyle;rounded=0;orthogonalLoop=1;jettySize=auto;html=1;entryX=0.5;entryY=0;entryDx=0;entryDy=0;entryPerimeter=0;fontFamily=Helvetica;fontSize=13;fontColor=#000000;" parent="Vqd0MARFTEj2jixsdshF-1" source="Vqd0MARFTEj2jixsdshF-22" target="Kf4BCiLplB8fyuFuvcDP-5" edge="1">
          <mxGeometry relative="1" as="geometry" />
        </mxCell>
        <mxCell id="Vqd0MARFTEj2jixsdshF-22" value="FIXED_DEPOSIT AND SAVINGS ACCOUNTS" style="whiteSpace=wrap;html=1;rounded=0;fillColor=#b1ddf0;strokeColor=#10739e;strokeWidth=0;fontStyle=0" parent="Vqd0MARFTEj2jixsdshF-1" vertex="1">
          <mxGeometry x="550" y="373" width="120" height="60" as="geometry" />
        </mxCell>
        <mxCell id="Kf4BCiLplB8fyuFuvcDP-0" value="MongoDB" style="shape=cylinder3;whiteSpace=wrap;html=1;boundedLbl=1;backgroundOutline=1;size=15;rounded=0;fontFamily=Helvetica;fontSize=13;strokeWidth=1;fillColor=#b0e3e6;strokeColor=#0E8088;" parent="Vqd0MARFTEj2jixsdshF-1" vertex="1">
          <mxGeometry x="55" y="505" width="70" height="80" as="geometry" />
        </mxCell>
        <mxCell id="Kf4BCiLplB8fyuFuvcDP-2" value="MongoDB" style="shape=cylinder3;whiteSpace=wrap;html=1;boundedLbl=1;backgroundOutline=1;size=15;rounded=0;fontFamily=Helvetica;fontSize=13;strokeWidth=1;fillColor=#b0e3e6;strokeColor=#0E8088;" parent="Vqd0MARFTEj2jixsdshF-1" vertex="1">
          <mxGeometry x="185" y="505" width="70" height="80" as="geometry" />
        </mxCell>
        <mxCell id="Kf4BCiLplB8fyuFuvcDP-3" value="MongoDB" style="shape=cylinder3;whiteSpace=wrap;html=1;boundedLbl=1;backgroundOutline=1;size=15;rounded=0;fontFamily=Helvetica;fontSize=13;strokeWidth=1;fillColor=#b0e3e6;strokeColor=#0E8088;" parent="Vqd0MARFTEj2jixsdshF-1" vertex="1">
          <mxGeometry x="315" y="505" width="70" height="80" as="geometry" />
        </mxCell>
        <mxCell id="Kf4BCiLplB8fyuFuvcDP-4" value="MongoDB" style="shape=cylinder3;whiteSpace=wrap;html=1;boundedLbl=1;backgroundOutline=1;size=15;rounded=0;fontFamily=Helvetica;fontSize=13;strokeWidth=1;fillColor=#b0e3e6;strokeColor=#0E8088;" parent="Vqd0MARFTEj2jixsdshF-1" vertex="1">
          <mxGeometry x="445" y="505" width="70" height="80" as="geometry" />
        </mxCell>
        <mxCell id="Kf4BCiLplB8fyuFuvcDP-5" value="MongoDB" style="shape=cylinder3;whiteSpace=wrap;html=1;boundedLbl=1;backgroundOutline=1;size=15;rounded=0;fontFamily=Helvetica;fontSize=13;strokeWidth=1;fillColor=#b0e3e6;strokeColor=#0E8088;" parent="Vqd0MARFTEj2jixsdshF-1" vertex="1">
          <mxGeometry x="575" y="505" width="70" height="80" as="geometry" />
        </mxCell>
        <mxCell id="Kf4BCiLplB8fyuFuvcDP-6" value="MongoDB" style="shape=cylinder3;whiteSpace=wrap;html=1;boundedLbl=1;backgroundOutline=1;size=15;rounded=0;fontFamily=Helvetica;fontSize=13;strokeWidth=1;fillColor=#b0e3e6;strokeColor=#0E8088;" parent="Vqd0MARFTEj2jixsdshF-1" vertex="1">
          <mxGeometry x="705" y="505" width="70" height="80" as="geometry" />
        </mxCell>
      </root>
    </mxGraphModel>
  </diagram>
</mxfile>
